<svg width="90" height="91" viewBox="0 0 90 91" fill="none" xmlns="http://www.w3.org/2000/svg">
<g id="646781c5543d669d8bca9aad_Smile%20-%20Purple.svg" clip-path="url(#clip0_22_938)">
<g id="Layer 1">
<g id="Group">
<path id="Vector" d="M84.7967 64.8844C95.4781 42.3184 86.1671 15.5192 64.0001 5.02666C41.8332 -5.46583 15.2043 4.32168 4.52294 26.8877C-6.15843 49.4537 3.15252 76.2529 25.3195 86.7454C47.4865 97.2379 74.1154 87.4504 84.7967 64.8844Z" fill="#D371FF"/>
<path id="Vector_2" d="M79.6252 62.4363C88.9302 42.7779 80.819 19.4318 61.5084 10.2913C42.1977 1.15085 19 9.67725 9.69497 29.3356C0.389916 48.9939 8.50109 72.34 27.8118 81.4805C47.1225 90.621 70.3201 82.0946 79.6252 62.4363Z" stroke="black" stroke-width="0.59356" stroke-linecap="square" stroke-linejoin="bevel"/>
<path id="Vector_3" d="M63.3684 58.4426C57.3774 74.0809 36.5909 77.5631 25.6615 64.9005C19.5953 58.0192 18.3924 47.2718 23.0894 39.3774C18.8514 50.3069 23.2358 63.3018 34.0347 68.3352C44.7662 73.4992 57.6069 68.6518 63.3684 58.4426Z" fill="black"/>
<g id="Group_2">
<path id="Vector_4" d="M41.6061 35.8827C45.5004 27.6555 47.6357 20.5025 46.3754 19.906C45.1152 19.3094 40.9366 25.4953 37.0424 33.7225C33.1481 41.9497 31.0128 49.1027 32.2731 49.6992C33.5333 50.2958 37.7119 44.1099 41.6061 35.8827Z" fill="black"/>
<path id="Vector_5" d="M58.7292 43.9891C62.6234 35.762 64.7587 28.6089 63.4985 28.0124C62.2382 27.4159 58.0597 33.6017 54.1654 41.8289C50.2712 50.0561 48.1359 57.2092 49.3961 57.8057C50.6564 58.4022 54.8349 52.2163 58.7292 43.9891Z" fill="black"/>
</g>
</g>
</g>
</g>
<defs>
<clipPath id="clip0_22_938">
<rect width="89.1289" height="90.1419" fill="white" transform="translate(0.0957031 0.815918)"/>
</clipPath>
</defs>
</svg>
