<svg width="192" height="32" viewBox="0 0 192 32" fill="none" xmlns="http://www.w3.org/2000/svg">
<rect x="0.580078" width="81" height="32" rx="3" fill="white"/>
<path d="M10.7921 19.908H15.5521V21H9.70008V11.2H10.7921V19.908ZM23.6458 11.2V12.292H21.2658V19.908H23.6458V21H17.7938V19.908H20.1738V12.292H17.7938V11.2H23.6458ZM31.7396 11.2V21H29.9756L26.9796 12.53V21H25.8876V11.2H27.6516L30.6476 19.67V11.2H31.7396ZM33.9813 21V11.2H35.0733V15.554H35.8573L38.5453 11.2H39.8333L36.8233 16.1L39.8333 21H38.5453L35.8573 16.646H35.0733V21H33.9813ZM47.9271 12.292H43.1671V15.274H47.3671V16.366H43.1671V19.908H47.9271V21H42.0751V11.2H47.9271V12.292ZM53.6548 11.2C54.0842 11.2 54.4762 11.3073 54.8308 11.522C55.1948 11.7273 55.4842 12.012 55.6988 12.376C55.9135 12.74 56.0208 13.1367 56.0208 13.566V18.62C56.0208 19.0493 55.9135 19.446 55.6988 19.81C55.4842 20.174 55.1948 20.4633 54.8308 20.678C54.4762 20.8927 54.0842 21 53.6548 21H50.1688V11.2H53.6548ZM53.6548 19.894C54.0095 19.894 54.3082 19.768 54.5508 19.516C54.8028 19.264 54.9288 18.9653 54.9288 18.62V13.566C54.9288 13.2113 54.8028 12.9127 54.5508 12.67C54.3082 12.418 54.0095 12.292 53.6548 12.292H51.2608V19.894H53.6548ZM64.1146 11.2V12.292H61.7346V19.908H64.1146V21H58.2626V19.908H60.6426V12.292H58.2626V11.2H64.1146ZM72.2083 11.2V21H70.4443L67.4483 12.53V21H66.3563V11.2H68.1203L71.1163 19.67V11.2H72.2083Z" fill="black"/>
<g clip-path="url(#clip0_106_201)">
<path d="M91.7901 8V4C91.7671 5.05367 91.3383 6.05781 90.5931 6.80304C89.8479 7.54827 88.8437 7.97706 87.7901 8H85.5801C84.5264 7.97706 83.5223 7.54827 82.777 6.80304C82.0318 6.05781 81.603 5.05367 81.5801 4V28C81.603 26.9463 82.0318 25.9422 82.777 25.197C83.5223 24.4517 84.5264 24.0229 85.5801 24H87.7901C88.8437 24.0229 89.8479 24.4517 90.5931 25.197C91.3383 25.9422 91.7671 26.9463 91.7901 28V8Z" fill="white"/>
</g>
<rect x="91.79" width="25" height="32" rx="3" fill="white"/>
<path d="M105.474 21L103.836 18.438L102.198 21H100.91L103.192 17.43L100.91 13.86H102.198L103.836 16.422L105.474 13.86H106.762L104.48 17.43L106.762 21H105.474Z" fill="black"/>
<g clip-path="url(#clip1_106_201)">
<path d="M127 8V4C126.977 5.05367 126.548 6.05781 125.803 6.80304C125.058 7.54827 124.054 7.97706 123 8H120.79C119.736 7.97706 118.732 7.54827 117.987 6.80304C117.242 6.05781 116.813 5.05367 116.79 4V28C116.813 26.9463 117.242 25.9422 117.987 25.197C118.732 24.4517 119.736 24.0229 120.79 24H123C124.054 24.0229 125.058 24.4517 125.803 25.197C126.548 25.9422 126.977 26.9463 127 28V8Z" fill="white"/>
</g>
<rect x="127" width="65" height="32" rx="3" fill="white"/>
<path d="M137.212 13.426V21H136.12V11.2H137.338L139.046 15.148L140.768 11.2H141.972V21H140.88V13.426L139.354 16.87H138.738L137.212 13.426ZM150.066 12.292H145.306V15.274H149.506V16.366H145.306V19.908H150.066V21H144.214V11.2H150.066V12.292ZM155.794 11.2C156.223 11.2 156.615 11.3073 156.97 11.522C157.334 11.7273 157.623 12.012 157.838 12.376C158.052 12.74 158.16 13.1367 158.16 13.566V18.62C158.16 19.0493 158.052 19.446 157.838 19.81C157.623 20.174 157.334 20.4633 156.97 20.678C156.615 20.8927 156.223 21 155.794 21H152.308V11.2H155.794ZM155.794 19.894C156.148 19.894 156.447 19.768 156.69 19.516C156.942 19.264 157.068 18.9653 157.068 18.62V13.566C157.068 13.2113 156.942 12.9127 156.69 12.67C156.447 12.418 156.148 12.292 155.794 12.292H153.4V19.894H155.794ZM166.253 11.2V12.292H163.873V19.908H166.253V21H160.401V19.908H162.781V12.292H160.401V11.2H166.253ZM174.347 18.62C174.347 19.0493 174.24 19.446 174.025 19.81C173.81 20.174 173.521 20.4633 173.157 20.678C172.802 20.8927 172.41 21 171.981 21H170.861C170.432 21 170.035 20.8927 169.671 20.678C169.307 20.4633 169.018 20.174 168.803 19.81C168.598 19.446 168.495 19.0493 168.495 18.62V11.2H169.587V18.62C169.587 18.9653 169.713 19.264 169.965 19.516C170.217 19.768 170.516 19.894 170.861 19.894H171.981C172.336 19.894 172.634 19.768 172.877 19.516C173.129 19.264 173.255 18.9653 173.255 18.62V11.2H174.347V18.62ZM177.681 13.426V21H176.589V11.2H177.807L179.515 15.148L181.237 11.2H182.441V21H181.349V13.426L179.823 16.87H179.207L177.681 13.426Z" fill="black"/>
<defs>
<clipPath id="clip0_106_201">
<rect width="10.21" height="24" fill="white" transform="translate(81.5801 4)"/>
</clipPath>
<clipPath id="clip1_106_201">
<rect width="10.21" height="24" fill="white" transform="translate(116.79 4)"/>
</clipPath>
</defs>
</svg>
